<svg id="Layer_1" data-name="Layer 1" xmlns="http://www.w3.org/2000/svg" viewBox="0 0 212.67 62.44"><defs><style>.cls-1{fill:#7b7a7a;}.cls-2{fill:#d6af2e;}.cls-3{fill:#e0bc58;}.cls-4{fill:#e5c263;}</style></defs><path class="cls-1" d="M15.48,25.79H35.86V6.86H50V61.14H35.86V36.74H15.48v24.4H1.37V6.86H15.48Z"/><path class="cls-1" d="M110.67,24.33V43.65q0,6.84,6.63,6.84t6.62-6.84V24.33h13V46.17q0,7.48-4.93,11.23T117.3,61.14q-9.8,0-14.73-3.74T97.64,46.17V24.33Z"/><path class="cls-1" d="M161.35,35.08V61.14h-13V35.08l-7.34.1V24.31l7.34-.1,0-17.35h13l0,17.35h7.42V35.08Z"/><path class="cls-1" d="M172.32,1.38h13V28.89a14.25,14.25,0,0,1,5.4-4.36,17,17,0,0,1,6.41-1.11q7,0,10.54,3.85t3.57,10.4V61.14h-13V42.5A19.13,19.13,0,0,0,197.8,38a5.14,5.14,0,0,0-1.44-2.66,6.11,6.11,0,0,0-4.17-1.52,6.45,6.45,0,0,0-5.08,2,8.22,8.22,0,0,0-1.76,5.66V61.14h-13Z"/><path class="cls-1" d="M84.6,16.08q-3.45-3-10.29-3T64,16.08Q60.57,19,60.57,25v3.3h9.11V27c0-3.6,1.54-5.41,4.63-5.41s4.63,1.81,4.63,5.41V43.41h9.11V25C88.05,21,86.89,18.05,84.6,16.08Z"/><path class="cls-2" d="M92.55,34l-19,4.39c-.35.08-.58.31-.58.56v21.6c0,.32.38.58.85.58h19c.48,0,.86-.26.86-.58v-26C93.68,34.17,93.11,33.88,92.55,34Z"/><path class="cls-3" d="M56,34,73.76,38.4a.64.64,0,0,1,.55.56v21.6c0,.66-.36.58-.8.58H55.73c-.44,0-.8-.26-.8-.58v-26C54.93,34.17,55.47,33.88,56,34Z"/><path class="cls-4" d="M93.4,34.57S74.64,40,74.31,40s-19.1-5.41-19.1-5.41c-.45-.13-.32-.59.18-.59H93.23C93.72,34,93.85,34.44,93.4,34.57Z"/></svg>